<svg width="32" height="32" viewBox="0 0 32 32" fill="none" xmlns="http://www.w3.org/2000/svg">
<circle cx="16" cy="16" r="16" fill="#E8F3FF"/>
<mask id="mask0" mask-type="alpha" maskUnits="userSpaceOnUse" x="0" y="0" width="32" height="32">
<circle cx="16" cy="16" r="16" fill="#E8F3FF"/>
</mask>
<g mask="url(#mask0)">
<path opacity="0.8" d="M26.8067 21.2853L25.0702 23.3939H18.0002V10.1222H26.8067V21.2853Z" fill="#63A4F2"/>
<path d="M17.9999 10.1222H10.5579V23.3939H17.9999V10.1222Z" fill="#63A4F2"/>
<path opacity="0.8" d="M7.20923 14.7115H14.5273L17.8762 10.1222H10.5582L7.20923 14.7115Z" fill="#83C1F7"/>
<path opacity="0.6" d="M18.1243 10.1222L21.3492 14.7115H30.2796L27.0548 10.1222H18.1243Z" fill="#83C1F7"/>
<path d="M17.7519 10.1222C17.7519 10.2462 15.1471 16.1999 15.1471 16.1999H10.5579V14.7115H14.4029L17.7519 10.1222Z" fill="#538BCE"/>
<path d="M26.8069 14.7118V16.2002H22.3416L21.3494 14.7118H26.8069Z" fill="#538BCE"/>
<path d="M13.2014 26.9518C15.3201 26.9518 17.4854 27.1002 19.5654 26.6124C22.9907 25.809 25.4 24.0034 27.3334 21.1186C28.1334 19.9255 29.6 17.8043 29.6 17.8043C29.6 17.8043 28.2667 17.1415 27.0654 18.2034C25.6587 19.4469 24.712 21.1756 22.9254 22.0002C21.9774 22.4377 20.5334 23.0754 18.4494 23.1059C18.4534 23.1019 23.5841 20.766 24.7321 18.8556C24.7721 18.7893 24.7494 18.7032 24.6801 18.6674C24.3614 18.507 23.4427 18.1225 22.2667 18.336C21.0667 18.6011 19.8667 19.3965 19.8667 19.3965C18.732 20.1495 17.7814 20.7368 16.3947 20.7554C15.2467 20.7699 14.0854 20.7222 12.9334 20.7222C12.9334 20.7222 10.4 20.7222 8.40007 22.4457C6.40006 24.1691 3.3334 27.2183 0.800049 30.4H8.58938C8.59073 30.3986 11.3014 26.9518 13.2014 26.9518Z" fill="url(#paint0_linear)"/>
<path d="M21.8311 8.25958L18.0897 7.25706C17.9435 7.21791 17.8567 7.06751 17.8959 6.92138L18.8984 3.17998C18.9375 3.03384 19.0879 2.94701 19.234 2.98617L22.9754 3.98868C23.1216 4.02783 23.2084 4.17823 23.1693 4.32436L22.1667 8.06577C22.1276 8.2119 21.9772 8.29873 21.8311 8.25958Z" fill="url(#paint1_linear)"/>
<path fill-rule="evenodd" clip-rule="evenodd" d="M22.2359 5.2518C22.1184 5.21816 21.9959 5.28614 21.9623 5.40362L21.8406 5.82904C21.807 5.94648 21.8749 6.06897 21.9924 6.10257C22.1099 6.13621 22.2323 6.06823 22.266 5.95075L22.3877 5.52536C22.4213 5.40789 22.3533 5.2854 22.2359 5.2518ZM21.8303 6.66983C21.9478 6.70343 22.0703 6.63548 22.1039 6.518C22.1375 6.40053 22.0695 6.27804 21.9521 6.24444C21.8346 6.2108 21.7121 6.27879 21.6785 6.39626C21.6449 6.51374 21.7129 6.63623 21.8303 6.66983Z" fill="white"/>
<path opacity="0.25" d="M3.03415 13.1552C3.45307 13.1552 3.79267 12.8156 3.79267 12.3967C3.79267 11.9778 3.45307 11.6382 3.03415 11.6382C2.61523 11.6382 2.27563 11.9778 2.27563 12.3967C2.27563 12.8156 2.61523 13.1552 3.03415 13.1552Z" fill="#75B4F5"/>
<path opacity="0.25" d="M8.15385 9.7419C8.46804 9.7419 8.72274 9.4872 8.72274 9.17302C8.72274 8.85883 8.46804 8.60413 8.15385 8.60413C7.83966 8.60413 7.58496 8.85883 7.58496 9.17302C7.58496 9.4872 7.83966 9.7419 8.15385 9.7419Z" fill="#75B4F5"/>
<path opacity="0.25" d="M5.30941 16.1894C5.93779 16.1894 6.44719 15.68 6.44719 15.0516C6.44719 14.4232 5.93779 13.9138 5.30941 13.9138C4.68103 13.9138 4.17163 14.4232 4.17163 15.0516C4.17163 15.68 4.68103 16.1894 5.30941 16.1894Z" fill="#75B4F5"/>
<path d="M12.3438 7.21271C12.2507 7.11415 12.2978 6.95187 12.4291 6.91838L13.8675 6.55166L14.316 5.13665C14.357 5.00744 14.5216 4.96976 14.6147 5.06832L16.665 7.23952C16.7998 7.38231 16.7934 7.60734 16.6506 7.74216L14.8967 9.39834C14.7539 9.53317 14.5289 9.5267 14.3941 9.38394L12.3438 7.21271Z" fill="#FADA59"/>
<path d="M24.477 6.99784C24.5158 6.86799 24.6799 6.8276 24.7746 6.92463L25.3642 7.52893L26.1888 7.34753C26.3212 7.31841 26.4362 7.44225 26.3974 7.57209L25.9158 9.1824C25.8595 9.37053 25.6614 9.47744 25.4733 9.42116L24.2343 9.05064C24.0461 8.99439 23.9392 8.79627 23.9955 8.60815L24.477 6.99784Z" fill="#FADA59"/>
<path fill-rule="evenodd" clip-rule="evenodd" d="M15.2441 6.82357C15.1632 6.89902 15.1588 7.02574 15.2342 7.10659L15.5075 7.39943C15.5829 7.48028 15.7096 7.48466 15.7905 7.40921C15.8714 7.33379 15.8757 7.20707 15.8003 7.12622L15.5271 6.83339C15.4516 6.75253 15.3249 6.74812 15.2441 6.82357ZM16.1544 7.79964C16.2352 7.72423 16.2396 7.59751 16.1642 7.51666C16.0887 7.43577 15.962 7.43139 15.8811 7.50684C15.8003 7.58229 15.7959 7.70901 15.8713 7.78986C15.9468 7.87072 16.0735 7.87509 16.1544 7.79964Z" fill="white"/>
</g>
<defs>
<linearGradient id="paint0_linear" x1="15.2001" y1="17.6" x2="15.2001" y2="30.4" gradientUnits="userSpaceOnUse">
<stop offset="0.229167" stop-color="#FFD7D1"/>
<stop offset="1" stop-color="#FDB6AB"/>
</linearGradient>
<linearGradient id="paint1_linear" x1="22.8797" y1="4.53521" x2="18.1413" y2="7.27089" gradientUnits="userSpaceOnUse">
<stop stop-color="#7DEAC2"/>
<stop offset="1" stop-color="#5EC595"/>
</linearGradient>
</defs>
</svg>
