<svg width="24" height="24" viewBox="0 0 24 24" fill="none" xmlns="http://www.w3.org/2000/svg">
<path d="M7.55546 5.49609C8.16833 5.12535 8.53403 4.42688 8.53403 3.75844C8.53403 3.09 8.16833 2.46969 7.55546 2.09887C7.2572 1.9186 6.85686 1.99188 6.66013 2.26137C6.4621 2.5309 6.54285 2.89489 6.83917 3.07399C7.09581 3.22907 7.2427 3.47856 7.2427 3.75844C7.2427 4.03832 7.09581 4.36594 6.83917 4.52102C6.2263 4.8918 5.8606 5.51215 5.8606 6.18054C5.8606 6.84894 6.2263 7.46929 6.83917 7.84011C7.14126 8.02191 7.53992 7.94288 7.7345 7.67761C7.93252 7.40808 7.85238 7.04468 7.55542 6.865C7.29878 6.70992 7.15189 6.46043 7.15189 6.18054C7.15193 5.90066 7.29886 5.65117 7.55546 5.49609Z" fill="#0068FF"/>
<path d="M10.7837 5.49609C11.3966 5.12535 11.7623 4.42688 11.7623 3.75844C11.7623 3.09 11.3966 2.46969 10.7837 2.09887C10.4849 1.9186 10.0851 1.99188 9.8884 2.26137C9.69038 2.5309 9.77112 2.89489 10.0674 3.07399C10.3241 3.22907 10.471 3.47856 10.471 3.75844C10.471 4.03832 10.3241 4.36594 10.0674 4.52102C9.45457 4.8918 9.08887 5.51215 9.08887 6.18054C9.08887 6.84894 9.45457 7.46929 10.0674 7.84011C10.3695 8.02191 10.7682 7.94288 10.9628 7.67761C11.1608 7.40808 11.0807 7.04468 10.7837 6.865C10.5271 6.70992 10.3802 6.46043 10.3802 6.18054C10.3802 5.90066 10.5271 5.65117 10.7837 5.49609Z" fill="#0068FF"/>
<path d="M14.012 5.49614C14.6249 5.12532 14.9906 4.42684 14.9906 3.75844C14.9906 3.09004 14.6249 2.46969 14.012 2.09887C13.7131 1.9186 13.314 1.99188 13.1167 2.26137C12.9186 2.5309 12.9994 2.89489 13.2957 3.07399C13.5523 3.22907 13.6992 3.47856 13.6992 3.75844C13.6992 4.03832 13.5523 4.36594 13.2957 4.52102C12.6828 4.89184 12.3171 5.51219 12.3171 6.18059C12.3171 6.84899 12.6828 7.46934 13.2957 7.84016C13.5978 8.02195 13.9965 7.94293 14.191 7.67766C14.3891 7.40813 14.3089 7.04473 14.012 6.86504C13.7554 6.70996 13.6085 6.46047 13.6085 6.18059C13.6085 5.90071 13.7554 5.65121 14.012 5.49614Z" fill="#0068FF"/>
<path d="M21.56 11.7139C20.9729 10.8051 19.8923 10.2409 18.7403 10.2409H17.4957V9.65486C17.4957 9.33096 17.2069 9.06885 16.85 9.06885H3.93693C3.58005 9.06881 3.29126 9.33092 3.29126 9.65482V13.3717C3.29126 14.3074 3.45769 15.2689 3.78685 16.1526C4.13615 17.0941 4.78371 17.8854 5.60631 18.484H15.1806C15.6419 18.1484 16.0395 17.7463 16.369 17.2969C18.7338 17.2197 20.5459 16.2424 21.6092 14.514C22.147 13.6402 22.1287 12.5935 21.56 11.7139ZM20.4818 13.9428C19.7456 15.1386 18.5805 15.874 17.0217 16.0735C17.332 15.2136 17.4956 14.28 17.4956 13.3717V11.4128H18.7403C19.4464 11.4128 20.0845 11.747 20.4464 12.3073C20.7857 12.8321 20.7983 13.4278 20.4818 13.9428Z" fill="#0068FF"/>
<path d="M18.1414 19.656H2.64567C2.28909 19.656 2 19.9184 2 20.242C2 21.213 2.86719 22 3.93696 22H16.85C17.9198 22 18.787 21.213 18.787 20.242C18.787 19.9184 18.4979 19.656 18.1414 19.656Z" fill="#0068FF"/>
</svg>
