<?xml version="1.0" encoding="iso-8859-1"?>
<!-- Generator: Adobe Illustrator 19.0.0, SVG Export Plug-In . SVG Version: 6.00 Build 0)  -->
<svg version="1.1" id="Layer_1" xmlns="http://www.w3.org/2000/svg" xmlns:xlink="http://www.w3.org/1999/xlink" x="0px" y="0px"
	 viewBox="0 0 297 297" style="enable-background:new 0 0 297 297;" xml:space="preserve">
<g>
	<g>
		<g>
			<g>
				<circle style="fill:#EDB7AB;" cx="148.5" cy="148.5" r="148.5"/>
			</g>
		</g>
	</g>
	<path style="fill:#D69D94;" d="M163.976,47.812L49.5,198l99,99c71.932,0,131.913-51.145,145.575-119.052L163.976,47.812z"/>
	<g>
		<path style="fill:#C63C22;" d="M249.688,198h-72.395v-82.5h28.48c6.549,0,12.536,3.7,15.465,9.558l11.721,23.442l15.036,11.434
			c5.105,3.149,8.213,8.718,8.213,14.716v16.83C256.208,195.081,253.289,198,249.688,198z"/>
	</g>
	<g>
		<path style="fill:#F86E51;" d="M181.5,198h-132V95.166c0-6.996,5.671-12.666,12.667-12.666h106.667
			c6.996,0,12.667,5.671,12.667,12.666V198H181.5z"/>
	</g>
	<g>
		<path style="fill:#E25740;" d="M181.5,95.167c0-6.996-5.671-12.667-12.667-12.667h-20.667V198H181.5V95.167z"/>
	</g>
	<g>
		<path style="fill:#D0D5D9;" d="M212.597,126.195L224,149h-33v-27h14.81C208.684,122,211.312,123.624,212.597,126.195z"/>
	</g>
	<g>
		<circle style="fill:#32373B;" cx="221.291" cy="198" r="23.291"/>
	</g>
	<g>
		<circle style="fill:#484F54;" cx="221.292" cy="198" r="9"/>
	</g>
	<g>
		<path style="fill:#4F2B4F;" d="M111.436,70.242c0,8.973-23.112,8.124-36.58,8.124s-8.129-7.274-8.129-16.247
			s-5.34-16.247,8.129-16.247S111.436,61.269,111.436,70.242z"/>
	</g>
	<g>
		<path style="fill:#4F2B4F;" d="M119.564,70.242c0,8.973,23.112,8.124,36.58,8.124s8.129-7.274,8.129-16.247
			s5.34-16.247-8.129-16.247S119.564,61.269,119.564,70.242z"/>
	</g>
	<g>
		<path style="fill:#4F2B4F;" d="M119.565,70.242c0,7.366,15.573,8.112,28.602,8.144V47.234
			C135.137,51.187,119.565,62.876,119.565,70.242z"/>
		<path style="fill:#4F2B4F;" d="M156.145,45.871c-2.412,0-5.135,0.5-7.978,1.363v31.151c2.842,0.007,5.566-0.02,7.978-0.02
			c13.469,0,8.129-7.274,8.129-16.247S169.613,45.871,156.145,45.871z"/>
	</g>
	<g>
		<circle style="fill:#9B59B6;" cx="115.5" cy="64.62" r="9.548"/>
	</g>
	<g>
		<path style="fill:#E04332;" d="M47,95.756h137V78.458c0-5.579-4.523-10.102-10.102-10.102H57.102
			C51.523,68.356,47,72.879,47,78.458V95.756z"/>
	</g>
	<g>
		<path style="fill:#C63C22;" d="M184,78.458c0-5.579-4.523-10.102-10.102-10.102h-25.731v27.4H184V78.458z"/>
	</g>
	<g>
		<rect x="106.367" y="68.356" style="fill:#4F2B4F;" width="18.267" height="129.644"/>
	</g>
	<g>
		<circle style="fill:#32373B;" cx="89.291" cy="198" r="23.291"/>
	</g>
	<g>
		<circle style="fill:#484F54;" cx="89.291" cy="198" r="9"/>
	</g>
</g>
<g>
</g>
<g>
</g>
<g>
</g>
<g>
</g>
<g>
</g>
<g>
</g>
<g>
</g>
<g>
</g>
<g>
</g>
<g>
</g>
<g>
</g>
<g>
</g>
<g>
</g>
<g>
</g>
<g>
</g>
</svg>
