<svg width="24" height="24" viewBox="0 0 24 24" fill="#0068FF" xmlns="http://www.w3.org/2000/svg">
<path d="M21.0357 12.2699C20.9519 12.0983 20.9519 11.9015 21.0357 11.7299L21.8131 10.1396C22.246 9.25416 21.903 8.19876 21.0324 7.73683L19.4688 6.90717C19.3001 6.81769 19.1844 6.65843 19.1514 6.47039L18.8456 4.72684C18.6753 3.75608 17.7773 3.10375 16.8016 3.2418L15.049 3.48972C14.8598 3.51643 14.6727 3.45561 14.5355 3.32285L13.2633 2.09212C12.5549 1.40681 11.4451 1.40677 10.7368 2.09212L9.46455 3.32297C9.32727 3.45577 9.14021 3.51647 8.95108 3.48984L7.19841 3.24192C6.2224 3.10379 5.32475 3.7562 5.15446 4.72697L4.84865 6.47044C4.81564 6.65851 4.69998 6.81773 4.53132 6.90725L2.96767 7.73691C2.09705 8.1988 1.75411 9.25428 2.18694 10.1398L2.96429 11.73C3.04815 11.9016 3.04815 12.0984 2.96429 12.27L2.1869 13.8602C1.75407 14.7457 2.09701 15.8011 2.96763 16.263L4.53128 17.0927C4.69998 17.1822 4.81564 17.3414 4.84865 17.5295L5.15446 19.273C5.30948 20.1568 6.06725 20.7765 6.93815 20.7764C7.02393 20.7764 7.11096 20.7704 7.19845 20.758L8.95112 20.5101C9.14013 20.4833 9.32731 20.5442 9.46459 20.677L10.7368 21.9077C11.0911 22.2504 11.5455 22.4217 12 22.4217C12.4545 22.4216 12.9091 22.2503 13.2632 21.9077L14.5355 20.677C14.6728 20.5442 14.8599 20.4836 15.049 20.5101L16.8016 20.758C17.7778 20.8961 18.6753 20.2437 18.8456 19.273L19.1514 17.5295C19.1844 17.3414 19.3001 17.1822 19.4688 17.0927L21.0324 16.263C21.903 15.8012 22.246 14.7457 21.8131 13.8602L21.0357 12.2699ZM20.4689 15.2011L18.9053 16.0307C18.4068 16.2953 18.0648 16.7658 17.9673 17.3217L17.6615 19.0652C17.6039 19.3937 17.3003 19.6143 16.97 19.5677L15.2173 19.3198C14.6584 19.2406 14.1053 19.4205 13.6996 19.8129L12.4274 21.0436C12.1878 21.2754 11.8123 21.2754 11.5726 21.0436L10.3004 19.8128C9.95754 19.4812 9.50933 19.3014 9.04141 19.3014C8.95568 19.3014 8.86925 19.3075 8.7827 19.3197L7.03003 19.5676C6.70004 19.6143 6.39614 19.3937 6.3385 19.0652L6.03265 17.3217C5.93511 16.7657 5.59323 16.2952 5.09466 16.0307L3.53101 15.201C3.23643 15.0447 3.12041 14.6877 3.26684 14.3881L4.04423 12.7978C4.29207 12.2907 4.29207 11.7091 4.04423 11.202L3.26684 9.61171C3.12041 9.31213 3.23643 8.95506 3.53101 8.79878L5.09466 7.96912C5.59319 7.70455 5.93511 7.23403 6.03261 6.67809L6.33842 4.93458C6.39606 4.60614 6.69967 4.38549 7.02995 4.43215L8.78262 4.68007C9.34136 4.75917 9.89464 4.57935 10.3003 4.18695L11.5726 2.95622C11.8122 2.72442 12.1876 2.72442 12.4273 2.95622L13.6996 4.18695C14.1052 4.57939 14.6584 4.75917 15.2173 4.68007L16.9699 4.43215C17.3 4.38545 17.6039 4.60614 17.6615 4.93458L17.9673 6.67814C18.0648 7.23407 18.4067 7.70463 18.9053 7.96912L20.4689 8.79878C20.7635 8.95506 20.8795 9.31213 20.7331 9.61171L19.9557 11.202C19.7078 11.709 19.7078 12.2907 19.9557 12.7977L20.7331 14.388C20.8795 14.6877 20.7635 15.0448 20.4689 15.2011Z" fill="#0068FF"/>
<path d="M16.3921 7.60793C16.1574 7.3732 15.7768 7.3732 15.542 7.60793L7.60818 15.5418C7.37345 15.7766 7.37345 16.1571 7.60818 16.3919C7.72554 16.5092 7.87939 16.5679 8.03319 16.5679C8.18699 16.5679 8.34087 16.5093 8.45819 16.3919L16.3921 8.45803C16.6269 8.22326 16.6269 7.84271 16.3921 7.60793Z" fill="#0068FF"/>
<path d="M9.59558 6.59033C8.38031 6.59033 7.3916 7.57905 7.3916 8.79431C7.3916 10.0096 8.38031 10.9983 9.59558 10.9983C10.8108 10.9983 11.7996 10.0096 11.7996 8.79431C11.7996 7.57905 10.8108 6.59033 9.59558 6.59033ZM9.59558 9.79609C9.04319 9.79609 8.59379 9.34669 8.59379 8.79427C8.59379 8.24188 9.04319 7.79248 9.59558 7.79248C10.148 7.79248 10.5974 8.24188 10.5974 8.79427C10.5974 9.34669 10.148 9.79609 9.59558 9.79609Z" fill="#0068FF"/>
<path d="M14.4044 13.0017C13.1892 13.0017 12.2004 13.9904 12.2004 15.2057C12.2004 16.4209 13.1892 17.4097 14.4044 17.4097C15.6197 17.4097 16.6084 16.4209 16.6084 15.2057C16.6084 13.9904 15.6197 13.0017 14.4044 13.0017ZM14.4044 16.2075C13.852 16.2075 13.4026 15.7581 13.4026 15.2057C13.4026 14.6533 13.852 14.2039 14.4044 14.2039C14.9568 14.2039 15.4062 14.6533 15.4062 15.2057C15.4062 15.7581 14.9568 16.2075 14.4044 16.2075Z" fill="#0068FF"/>
</svg>
