<svg width="22" height="22" viewBox="0 0 22 22" fill="none" xmlns="http://www.w3.org/2000/svg">
<path fill-rule="evenodd" clip-rule="evenodd" d="M21.1 11C21.1 5.42192 16.5781 0.899994 11 0.899994C5.4219 0.899994 0.899975 5.42192 0.899975 11C0.899975 16.5781 5.4219 21.1 11 21.1C16.5781 21.1 21.1 16.5781 21.1 11ZM10.4 4.99999C10.4 4.66862 10.6686 4.39999 11 4.39999C11.3313 4.39999 11.6 4.66862 11.6 4.99999V10.7515L14.4242 13.5757C14.6586 13.81 14.6586 14.1899 14.4242 14.4243C14.1899 14.6586 13.81 14.6586 13.5757 14.4243L10.5757 11.4243C10.4632 11.3117 10.4 11.1591 10.4 11V4.99999Z" fill="#778D9E"/>
</svg>
