<svg width="48" height="48" viewBox="0 0 48 48" fill="none" xmlns="http://www.w3.org/2000/svg">
<g clip-path="url(#clip0)">
<circle cx="23.4146" cy="23.4146" r="23.4146" fill="#EEF3F9"/>
<mask id="mask0" mask-type="alpha" maskUnits="userSpaceOnUse" x="10" y="6" width="38" height="38">
<path d="M10.251 9.67973L47.4771 6.44272V43.1293L22.3899 37.7342L10.251 9.67973Z" fill="#EEF2F7"/>
</mask>
<g mask="url(#mask0)">
<path d="M11.1738 40.9715C14.0962 40.9715 16.4653 38.6024 16.4653 35.68C16.4653 32.7576 14.0962 30.3885 11.1738 30.3885C8.25139 30.3885 5.88232 32.7576 5.88232 35.68C5.88232 38.6024 8.25139 40.9715 11.1738 40.9715Z" fill="#6C8098"/>
<path d="M11.1738 38.4037C12.6778 38.4037 13.897 37.1845 13.897 35.6805C13.897 34.1765 12.6778 32.9573 11.1738 32.9573C9.66988 32.9573 8.45068 34.1765 8.45068 35.6805C8.45068 37.1845 9.66988 38.4037 11.1738 38.4037Z" fill="white"/>
<path opacity="0.1" d="M13.8971 32.4875C14.7985 33.2574 15.3697 34.4014 15.3697 35.6797C15.3697 37.9967 13.491 39.8754 11.174 39.8754C9.34633 39.8754 7.79194 38.7067 7.21631 37.0763" stroke="white" stroke-width="3" stroke-miterlimit="10" stroke-linecap="round" stroke-linejoin="round"/>
<path d="M46.7426 30.3986C46.7266 30.3241 46.6696 30.2657 46.6156 30.2131C44.5031 28.1707 41.2467 27.0444 38.3409 27.8201C36.6287 24.4162 33.3373 18.3285 33.3373 18.3285C33.3373 18.3285 33.3007 17.6419 33.7901 17.4315C33.9537 17.414 34.1174 17.4081 34.2825 17.4096C34.7426 17.414 35.2072 17.4739 35.6806 17.4856C35.6674 16.2569 35.6557 15.0283 35.6426 13.7982C35.6426 13.7573 35.6411 13.712 35.6177 13.6784C35.59 13.6389 35.5403 13.6229 35.4936 13.6097C34.5951 13.3658 33.571 13.5849 32.8464 14.1693C32.3233 14.59 32.1261 15.2431 31.7215 15.7559C31.3314 16.2496 30.7689 16.479 30.2723 16.8472C30.2723 16.8472 30.1305 17.1087 30.129 17.4388L28.5206 18.0729L28.899 19.0955L30.5571 18.2861C30.6974 18.3943 30.88 18.4921 31.1166 18.5739C31.2744 18.5476 31.381 18.536 31.4556 18.533C31.514 18.5316 31.5681 18.5623 31.5988 18.6105C31.7419 18.9027 33.8413 23.1948 34.0794 24.3869C34.3073 25.5265 34.487 26.2701 33.9727 27.4359C33.159 29.0137 31.9128 31.4008 31.9128 31.4008C31.9128 31.4008 31.5564 32.2233 29.7741 32.2233C27.8062 32.2233 26.7441 32.2233 23.6163 32.2233C23.1342 32.2043 21.3899 32.3855 20.5454 30.8282C20.4183 29.4709 20.395 28.9947 20.395 28.9947C20.395 28.9947 20.148 27.3497 21.9304 26.2525C23.7127 25.1554 24.2342 24.8545 24.5907 24.8267C24.9472 24.7989 25.4409 24.3563 25.3037 24.2628C25.1663 24.1693 8.68564 24.4162 8.68564 24.4162L8.46654 25.5952C8.46654 25.5952 6.94862 26.5784 5.37081 28.4717H4.59946C4.40516 28.4717 4.21962 28.5491 4.0823 28.685L3.8091 28.9582C3.67178 29.0955 3.59581 29.281 3.59581 29.4753V30.349C3.59581 30.4951 3.70392 30.6163 3.84562 30.6368C3.11809 31.8771 2.49574 33.3351 2.15826 35.0093C1.98587 35.8669 29.9625 34.7931 31.8077 34.7215C31.8267 34.7887 31.8632 34.8515 31.9041 34.91C32.3526 35.5528 33.2218 35.8011 33.9976 35.6857C34.7222 35.5791 35.4848 35.1408 36.0999 34.685C38.2839 33.0648 40.3278 31.7909 43.1386 31.7047C43.3066 31.6988 43.4775 31.6974 43.6484 31.6945C44.2547 31.6843 44.8697 31.6667 45.4512 31.4958C45.9362 31.3541 46.4008 31.078 46.6711 30.6514C46.7193 30.5754 46.7616 30.4863 46.7426 30.3986Z" fill="url(#paint0_linear)"/>
<path d="M41.0654 40.9715C43.9877 40.9715 46.3568 38.6024 46.3568 35.68C46.3568 32.7576 43.9877 30.3885 41.0654 30.3885C38.143 30.3885 35.7739 32.7576 35.7739 35.68C35.7739 38.6024 38.143 40.9715 41.0654 40.9715Z" fill="#6C8098"/>
<path d="M41.0652 38.4037C42.5691 38.4037 43.7883 37.1845 43.7883 35.6805C43.7883 34.1765 42.5691 32.9573 41.0652 32.9573C39.5612 32.9573 38.342 34.1765 38.342 35.6805C38.342 37.1845 39.5612 38.4037 41.0652 38.4037Z" fill="white"/>
<path opacity="0.1" d="M43.7885 32.4875C44.6899 33.2574 45.2611 34.4014 45.2611 35.6797C45.2611 37.9967 43.3824 39.8754 41.0653 39.8754C39.2377 39.8754 37.6833 38.7067 37.1077 37.0763" stroke="white" stroke-width="3" stroke-miterlimit="10" stroke-linecap="round" stroke-linejoin="round"/>
<path d="M35.6426 13.6594C35.6426 13.6594 36.3833 14.1356 36.3833 15.4782C36.3833 16.8208 35.6835 17.4856 35.6835 17.4856" fill="#D5E1ED"/>
<path d="M8.46631 25.5948C8.46631 25.5948 23.6862 22.1938 18.8052 35.1478C18.8052 35.1478 23.1924 25.4853 8.46631 25.5948Z" fill="#8899B2"/>
<path d="M7.78611 23.3828C7.79795 23.9633 8.27192 24.4277 8.85256 24.4277H26.1799C26.1799 24.4277 29.6073 20.7959 26.3713 20.7959C23.6568 20.7959 12.3808 20.7984 8.81768 20.7992C8.22013 20.7994 7.74344 21.2903 7.7556 21.8877L7.78611 23.3828Z" fill="#6C8098"/>
<path d="M28.8996 19.0958C29.091 19.025 29.1615 18.7387 29.057 18.4565C28.9526 18.1742 28.7127 18.0029 28.5212 18.0738C28.3298 18.1446 28.2593 18.4309 28.3638 18.7131C28.4683 18.9954 28.7082 19.1667 28.8996 19.0958Z" fill="#D5E1ED"/>
<path opacity="0.15" d="M32.6213 34.2293C32.6213 34.2293 33.2262 31.7004 35.1312 29.8684C35.9961 29.0357 37.2247 28.0277 38.3423 27.8188C38.3423 27.8188 37.1955 28.6544 35.7477 29.9225C34.6549 30.8823 33.777 32.2001 32.6213 34.2293Z" fill="black"/>
<path d="M13.9799 30.5237H8.71332C8.55556 30.5237 8.42554 30.3937 8.42554 30.2359V30.1409C8.42554 29.9831 8.55556 29.8531 8.71332 29.8531H13.9799C14.1378 29.8531 14.2678 29.9831 14.2678 30.1409V30.2359C14.2678 30.3937 14.1378 30.5237 13.9799 30.5237Z" fill="#D4E0ED" fill-opacity="0.7"/>
<path d="M13.9799 31.8612H8.71332C8.55556 31.8612 8.42554 31.7312 8.42554 31.5734V31.4784C8.42554 31.3207 8.55556 31.1906 8.71332 31.1906H13.9799C14.1378 31.1906 14.2678 31.3207 14.2678 31.4784V31.5734C14.2678 31.7312 14.1378 31.8612 13.9799 31.8612Z" fill="#D4E0ED" fill-opacity="0.7"/>
<path d="M13.9799 33.1977H8.71332C8.55556 33.1977 8.42554 33.0676 8.42554 32.9099V32.8149C8.42554 32.6571 8.55556 32.5271 8.71332 32.5271H13.9799C14.1378 32.5271 14.2678 32.6571 14.2678 32.8149V32.9099C14.2678 33.0691 14.1378 33.1977 13.9799 33.1977Z" fill="#D4E0ED" fill-opacity="0.7"/>
</g>
<mask id="mask1" mask-type="alpha" maskUnits="userSpaceOnUse" x="10" y="6" width="39" height="40">
<path d="M10.2615 9.52561L47.2177 6.28854L48.3291 45.3338L22.6772 44.4284L22.0736 41.4105L16.0378 37.7891L10.2615 9.52561Z" fill="#EEF2F7"/>
</mask>
<g mask="url(#mask1)">
<path d="M11.1735 40.9715C14.0959 40.9715 16.465 38.6024 16.465 35.68C16.465 32.7576 14.0959 30.3885 11.1735 30.3885C8.25115 30.3885 5.88208 32.7576 5.88208 35.68C5.88208 38.6024 8.25115 40.9715 11.1735 40.9715Z" fill="#6C8098"/>
<path d="M11.1736 38.4037C12.6776 38.4037 13.8968 37.1845 13.8968 35.6805C13.8968 34.1765 12.6776 32.9573 11.1736 32.9573C9.66964 32.9573 8.45044 34.1765 8.45044 35.6805C8.45044 37.1845 9.66964 38.4037 11.1736 38.4037Z" fill="white"/>
<path opacity="0.1" d="M13.8969 32.4875C14.7983 33.2574 15.3694 34.4014 15.3694 35.6797C15.3694 37.9967 13.4907 39.8754 11.1737 39.8754C9.34609 39.8754 7.79164 38.7067 7.21606 37.0763" stroke="white" stroke-width="3" stroke-miterlimit="10" stroke-linecap="round" stroke-linejoin="round"/>
<path d="M41.0651 40.9715C43.9875 40.9715 46.3566 38.6024 46.3566 35.68C46.3566 32.7576 43.9875 30.3885 41.0651 30.3885C38.1427 30.3885 35.7737 32.7576 35.7737 35.68C35.7737 38.6024 38.1427 40.9715 41.0651 40.9715Z" fill="#6C8098"/>
<path d="M41.0652 38.4037C42.5691 38.4037 43.7883 37.1845 43.7883 35.6805C43.7883 34.1765 42.5691 32.9573 41.0652 32.9573C39.5612 32.9573 38.342 34.1765 38.342 35.6805C38.342 37.1845 39.5612 38.4037 41.0652 38.4037Z" fill="white"/>
<path opacity="0.5" d="M43.7885 32.4875C44.6898 33.2574 45.2611 34.4014 45.2611 35.6797C45.2611 37.9967 43.3823 39.8754 41.0653 39.8754C39.2377 39.8754 37.6833 38.7067 37.1077 37.0763" stroke="#CACFD4" stroke-width="1.5" stroke-miterlimit="10" stroke-linecap="round" stroke-linejoin="round"/>
<path d="M46.7424 30.3986C46.7263 30.3241 46.6694 30.2657 46.6153 30.2131C44.5028 28.1707 41.2464 27.0444 38.3407 27.8201C36.6285 24.4162 33.337 18.3285 33.337 18.3285C33.337 18.3285 33.3005 17.6419 33.7899 17.4315C33.9535 17.414 34.1172 17.4081 34.2822 17.4096C34.7424 17.414 35.207 17.4739 35.6804 17.4856C35.6672 16.2569 35.6555 15.0283 35.6423 13.7982C35.6423 13.7573 35.6409 13.712 35.6175 13.6784C35.5897 13.6389 35.5401 13.6229 35.4933 13.6097C34.5949 13.3658 33.5708 13.5849 32.8461 14.1693C32.3231 14.59 32.1259 15.2431 31.7212 15.7559C31.3312 16.2496 30.7687 16.479 30.272 16.8472C30.272 16.8472 30.1303 17.1087 30.1288 17.4388L28.5204 18.0729L28.8988 19.0955L30.5569 18.2861C30.6971 18.3943 30.8797 18.4921 31.1164 18.5739C31.2742 18.5476 31.3808 18.536 31.4553 18.533C31.5138 18.5316 31.5678 18.5623 31.5985 18.6105C31.7417 18.9027 33.841 23.1948 34.0792 24.3869C34.3071 25.5265 34.4868 26.2701 33.9725 27.4359C33.1588 29.0137 31.9126 31.4008 31.9126 31.4008C31.9126 31.4008 31.5561 32.2233 29.7738 32.2233C27.806 32.2233 26.7439 32.2233 23.616 32.2233C23.134 32.2043 21.3896 32.3855 20.5452 30.8282C20.4181 29.4709 20.3947 28.9947 20.3947 28.9947C20.3947 28.9947 20.1478 27.3497 21.9301 26.2525C23.7125 25.1554 24.234 24.8545 24.5905 24.8267C24.9469 24.7989 25.4407 24.3563 25.3034 24.2628C25.1661 24.1693 8.68542 24.4162 8.68542 24.4162L8.46627 25.5952C8.46627 25.5952 6.9484 26.5784 5.37059 28.4717H4.59922C4.40492 28.4717 4.21938 28.5491 4.08205 28.685L3.80886 28.9582C3.67153 29.0955 3.59557 29.281 3.59557 29.4753V30.349C3.59557 30.4951 3.70367 30.6163 3.84539 30.6368C3.11784 31.8771 2.49549 33.3351 2.15802 35.0093C1.98563 35.8669 29.9623 34.7931 31.8074 34.7215C31.8264 34.7887 31.8629 34.8515 31.9038 34.91C32.3524 35.5528 33.2216 35.8011 33.9974 35.6857C34.722 35.5791 35.4846 35.1408 36.0996 34.685C38.2837 33.0648 40.3275 31.7909 43.1383 31.7047C43.3063 31.6988 43.4773 31.6974 43.6482 31.6945C44.2545 31.6843 44.8695 31.6667 45.451 31.4958C45.936 31.3541 46.4006 31.078 46.6709 30.6514C46.719 30.5754 46.7614 30.4863 46.7424 30.3986Z" fill="url(#paint1_linear)"/>
<path d="M35.6423 13.6594C35.6423 13.6594 36.383 14.1356 36.383 15.4782C36.383 16.8208 35.6832 17.4856 35.6832 17.4856" fill="#D5E1ED"/>
<path d="M8.46606 25.5948C8.46606 25.5948 23.6859 22.1938 18.805 35.1478C18.805 35.1478 23.1922 25.4853 8.46606 25.5948Z" fill="#8899B2"/>
<path d="M7.80713 24.4277H26.1797C26.1797 24.4277 29.607 20.7958 26.371 20.7958C23.1351 20.7958 7.80713 21.1801 7.80713 21.1801V24.4277Z" fill="#6C8098"/>
<path d="M28.8994 19.0958C29.0908 19.025 29.1613 18.7387 29.0568 18.4565C28.9523 18.1742 28.7124 18.0029 28.521 18.0738C28.3295 18.1446 28.2591 18.4309 28.3635 18.7131C28.468 18.9954 28.7079 19.1667 28.8994 19.0958Z" fill="#D5E1ED"/>
<path d="M32.6211 34.2293C32.6211 34.2293 33.2259 31.7004 35.131 29.8684C35.9958 29.0357 37.2245 28.0277 38.3421 27.8188C38.3421 27.8188 37.1952 28.6544 35.7474 29.9225C34.6547 30.8823 33.7767 32.2001 32.6211 34.2293Z" fill="#8899B2"/>
<path d="M13.9799 30.5237H8.71332C8.55551 30.5237 8.42554 30.3937 8.42554 30.2359V30.1409C8.42554 29.9831 8.55551 29.8531 8.71332 29.8531H13.9799C14.1377 29.8531 14.2677 29.9831 14.2677 30.1409V30.2359C14.2677 30.3937 14.1377 30.5237 13.9799 30.5237Z" fill="#D7E2EE"/>
<path d="M13.9799 31.8612H8.71332C8.55551 31.8612 8.42554 31.7312 8.42554 31.5734V31.4784C8.42554 31.3207 8.55551 31.1906 8.71332 31.1906H13.9799C14.1377 31.1906 14.2677 31.3207 14.2677 31.4784V31.5734C14.2677 31.7312 14.1377 31.8612 13.9799 31.8612Z" fill="#D7E2EE"/>
<path d="M13.9799 33.1977H8.71332C8.55551 33.1977 8.42554 33.0676 8.42554 32.9099V32.8149C8.42554 32.6571 8.55551 32.5271 8.71332 32.5271H13.9799C14.1377 32.5271 14.2677 32.6571 14.2677 32.8149V32.9099C14.2677 33.0691 14.1377 33.1977 13.9799 33.1977Z" fill="#D7E2EE"/>
<path d="M16.2102 9.49377H9.14725C7.96904 9.49377 7.01392 10.4489 7.01392 11.6271V18.6901C7.01392 19.8683 7.96904 20.8234 9.14725 20.8234H16.2102C17.3884 20.8234 18.3436 19.8683 18.3436 18.6901V11.6271C18.3436 10.4489 17.3884 9.49377 16.2102 9.49377Z" fill="url(#paint2_linear)"/>
<path d="M8.36206 11.6396C8.36206 11.0505 8.83961 10.5729 9.42873 10.5729H16.02C16.5994 10.5729 17.0691 11.0426 17.0691 11.622C17.0691 12.2014 16.5994 12.671 16.02 12.671H8.36206V11.6396Z" fill="url(#paint3_linear)"/>
<path fill-rule="evenodd" clip-rule="evenodd" d="M17.3985 16.7323C17.2246 16.7323 17.0837 16.8732 17.0837 17.047V17.6764C17.0837 17.8502 17.2246 17.9911 17.3985 17.9911C17.5723 17.9911 17.7132 17.8502 17.7132 17.6764V17.047C17.7132 16.8732 17.5723 16.7323 17.3985 16.7323ZM17.3985 18.8302C17.5723 18.8302 17.7132 18.6893 17.7132 18.5155C17.7132 18.3417 17.5723 18.2008 17.3985 18.2008C17.2247 18.2008 17.0838 18.3417 17.0838 18.5155C17.0838 18.6893 17.2247 18.8302 17.3985 18.8302Z" fill="white"/>
<path fill-rule="evenodd" clip-rule="evenodd" d="M14.0271 14.349V14.4416C14.0271 14.6144 14.0032 14.7554 13.887 14.921L13.873 14.9364C13.8476 14.9643 13.788 15.0296 13.7596 15.065L11.737 17.5178H14.0271V17.865C14.0271 18.0089 13.9063 18.1255 13.7573 18.1255H10.79V17.9618C10.79 17.7612 10.8416 17.6718 10.9068 17.5786L13.0631 15.0001H10.88V14.349H14.0271Z" fill="#EAF1EE"/>
<path opacity="0.25" d="M25.8962 9.14037C26.4921 9.14037 26.9752 8.65727 26.9752 8.06135C26.9752 7.46542 26.4921 6.98233 25.8962 6.98233C25.3002 6.98233 24.8171 7.46542 24.8171 8.06135C24.8171 8.65727 25.3002 9.14037 25.8962 9.14037Z" fill="#97B5D3"/>
<path opacity="0.25" d="M25.0873 16.154C25.5343 16.154 25.8966 15.7916 25.8966 15.3447C25.8966 14.8978 25.5343 14.5354 25.0873 14.5354C24.6404 14.5354 24.2781 14.8978 24.2781 15.3447C24.2781 15.7916 24.6404 16.154 25.0873 16.154Z" fill="#97B5D3"/>
<path opacity="0.25" d="M31.2916 9.14119C32.1855 9.14119 32.9101 8.41655 32.9101 7.52267C32.9101 6.62878 32.1855 5.90414 31.2916 5.90414C30.3977 5.90414 29.6731 6.62878 29.6731 7.52267C29.6731 8.41655 30.3977 9.14119 31.2916 9.14119Z" fill="#97B5D3"/>
<path d="M12.4087 8.51467C12.4087 8.31137 12.6271 8.18283 12.8049 8.28155L14.0272 8.96065L15.2495 8.28155C15.4273 8.18283 15.6458 8.31131 15.6458 8.51467V11.3047C15.6458 11.5993 15.407 11.838 15.1124 11.838H12.942C12.6475 11.838 12.4087 11.5993 12.4087 11.3047V8.51467Z" fill="#D0DCEA"/>
</g>
</g>
<defs>
<linearGradient id="paint0_linear" x1="2.15826" y1="24.6115" x2="46.7475" y2="24.6115" gradientUnits="userSpaceOnUse">
<stop stop-color="#9BAABC"/>
<stop offset="0.9987" stop-color="#97A7BA"/>
</linearGradient>
<linearGradient id="paint1_linear" x1="2.15802" y1="24.6115" x2="46.7472" y2="24.6115" gradientUnits="userSpaceOnUse">
<stop stop-color="#99A9BB"/>
<stop offset="0.9987" stop-color="#9EACBD"/>
</linearGradient>
<linearGradient id="paint2_linear" x1="17.7666" y1="10.91" x2="7.85312" y2="20.8234" gradientUnits="userSpaceOnUse">
<stop stop-color="#A4B2C3"/>
<stop offset="1" stop-color="#7C90A7"/>
</linearGradient>
<linearGradient id="paint3_linear" x1="12.7156" y1="10.5729" x2="12.7156" y2="12.671" gradientUnits="userSpaceOnUse">
<stop stop-color="white"/>
<stop offset="1" stop-color="white" stop-opacity="0.65"/>
</linearGradient>
<clipPath id="clip0">
<rect width="48" height="48" fill="white"/>
</clipPath>
</defs>
</svg>
