<svg width="22" height="22" viewBox="0 0 22 22" fill="#0068FF" xmlns="http://www.w3.org/2000/svg">
<path fill-rule="evenodd" clip-rule="evenodd" d="M2.0999 10.9999C2.0999 6.08457 6.08457 2.0999 10.9999 2.0999C15.9152 2.0999 19.8999 6.08457 19.8999 10.9999C19.8999 15.9152 15.9152 19.8999 10.9999 19.8999C6.08457 19.8999 2.0999 15.9152 2.0999 10.9999ZM10.9999 0.899902C5.42183 0.899902 0.899902 5.42183 0.899902 10.9999C0.899902 16.578 5.42183 21.0999 10.9999 21.0999C16.578 21.0999 21.0999 16.578 21.0999 10.9999C21.0999 5.42183 16.578 0.899902 10.9999 0.899902ZM11.5999 4.9999C11.5999 4.66853 11.3313 4.3999 10.9999 4.3999C10.6685 4.3999 10.3999 4.66853 10.3999 4.9999V10.9999C10.3999 11.159 10.4631 11.3116 10.5756 11.4242L13.5756 14.4242C13.81 14.6585 14.1899 14.6585 14.4242 14.4242C14.6585 14.1899 14.6585 13.81 14.4242 13.5756L11.5999 10.7514V4.9999Z" fill="#0068FF"/>
</svg>
