<svg width="16" height="20" viewBox="0 0 16 20" fill="none" xmlns="http://www.w3.org/2000/svg">
<path fill-rule="evenodd" clip-rule="evenodd" d="M10.5 0.500062L15.6 5.60006C15.9 5.80006 16 6.20006 16 6.60006V16.6001C16 18.5001 14.5 20.0001 12.7 20.0001H3.3C1.5 20.0001 0 18.5001 0 16.7001V3.40006C0 1.50006 1.5 6.17802e-05 3.3 0.100062H9.5C9.9 0.100062 10.2 0.200062 10.5 0.500062ZM14.5 6.70006C14.5 6.50006 14.4 6.30006 14.3 6.10006L10 1.70006C9.9 1.50006 9.6 1.50006 9.4 1.50006H9V6.20006C9 6.60006 9.4 7.00006 9.8 7.00006H14.5V6.70006ZM3.99999 10.4001C3.66862 10.4001 3.39999 10.6687 3.39999 11.0001C3.39999 11.3314 3.66862 11.6001 3.99999 11.6001H12C12.3314 11.6001 12.6 11.3314 12.6 11.0001C12.6 10.6687 12.3314 10.4001 12 10.4001H3.99999ZM3.99999 13.4001C3.66862 13.4001 3.39999 13.6687 3.39999 14.0001C3.39999 14.3314 3.66862 14.6001 3.99999 14.6001H9.99999C10.3314 14.6001 10.6 14.3314 10.6 14.0001C10.6 13.6687 10.3314 13.4001 9.99999 13.4001H3.99999Z" fill="#778D9E"/>
</svg>
