<svg width="20" height="20" viewBox="0 0 20 20" fill="none" xmlns="http://www.w3.org/2000/svg">
<path d="M19.0893 15.324C18.9663 14.0369 14.2768 11.576 14.2299 11.5545C12.9887 10.9822 11.8383 12.3358 11.2221 13.0613L11.2065 13.0799C10.2581 12.6265 9.40449 11.9972 8.69087 11.2254C8.02468 10.5175 7.47311 9.70993 7.0561 8.83185L7.17134 8.71369C7.8481 8.03004 8.98095 6.88457 8.39695 5.72246C8.37254 5.67461 5.78465 0.987107 4.48387 0.905067C3.74317 0.898757 3.01883 1.12292 2.41117 1.54652C1.80351 1.97011 1.3426 2.57218 1.09227 3.26933C0.281692 5.36304 1.65571 9.7664 5.85005 14.1326C9.35884 17.7869 13.0766 19.1375 15.3872 19.1375C15.907 19.154 16.4245 19.0618 16.9067 18.867C17.5854 18.5655 18.1571 18.0658 18.5467 17.4335C18.9362 16.8012 19.1254 16.0658 19.0893 15.324Z" fill="#778D9E"/>
</svg>
