<svg width="24" height="24" viewBox="0 0 24 24" fill="none" xmlns="http://www.w3.org/2000/svg">
<g clip-path="url(#clip0)">
<path d="M12.0006 0C5.37345 0 0.000976562 5.37287 0.000976562 11.9998C0.000976562 18.6267 5.37345 24 12.0006 24C18.6279 24 24.0007 18.6269 24.0007 11.9998C24.0007 5.37271 18.6279 0 12.0006 0ZM18.5741 17.8111H18.5736C18.5736 18.4622 18.0456 18.9902 17.3943 18.9902H16.6652V13.8896H13.2209V18.9901H6.48751C5.8364 18.9901 5.30833 18.462 5.30833 17.8109V11.6933C5.89824 11.6472 6.42711 11.3804 6.80886 10.9727C7.22941 11.4219 7.8274 11.7028 8.48995 11.7028C9.1525 11.7028 9.75041 11.4219 10.171 10.9727C10.5916 11.4219 11.1898 11.7028 11.8523 11.7028C12.5148 11.7028 13.1128 11.4219 13.5334 10.9727C13.9539 11.4219 14.5519 11.7028 15.2145 11.7028C15.877 11.7028 16.4748 11.4219 16.8956 10.9727C17.3156 11.4212 17.9127 11.702 18.5741 11.7028V17.8111ZM18.5761 10.458C17.9924 10.458 17.5175 9.98303 17.5175 9.39936C17.5175 9.05553 17.2388 8.77689 16.895 8.77689C16.5512 8.77689 16.2725 9.05553 16.2725 9.39936C16.2725 9.98303 15.7978 10.458 15.2139 10.458C14.63 10.458 14.1553 9.98303 14.1553 9.39936C14.1553 9.05553 13.8767 8.77689 13.5328 8.77689C13.189 8.77689 12.9104 9.05553 12.9104 9.39936C12.9104 9.98303 12.4354 10.458 11.8517 10.458C11.2681 10.458 10.793 9.98303 10.793 9.39936C10.793 9.05553 10.5143 8.77689 10.1705 8.77689C9.82665 8.77689 9.54802 9.05553 9.54802 9.39936C9.54802 9.98303 9.07306 10.458 8.48939 10.458C7.90572 10.458 7.43077 9.98303 7.43077 9.39936C7.43077 9.05553 7.15214 8.77689 6.8083 8.77689C6.46447 8.77689 6.18583 9.05553 6.18583 9.39936C6.18583 9.98303 5.71088 10.458 5.12705 10.458C4.60586 10.458 4.17155 10.0794 4.08443 9.5828L7.29781 5.22783H16.6193L19.6262 9.52904C19.5629 10.0519 19.1159 10.458 18.5761 10.458Z" fill="#0068FF"/>
<path d="M10.9325 13.9323H7.12305V16.5933H10.9325V13.9323Z" fill="#0068FF"/>
</g>
<defs>
<clipPath id="clip0">
<rect width="24" height="24" fill="white"/>
</clipPath>
</defs>
</svg>
